<?xml version="1.0" standalone="no"?>
<!DOCTYPE svg PUBLIC "-//W3C//DTD SVG 20010904//EN"
 "http://www.w3.org/TR/2001/REC-SVG-20010904/DTD/svg10.dtd">
<svg version="1.0" xmlns="http://www.w3.org/2000/svg"
 width="512.000000pt" height="512.000000pt" viewBox="0 0 512.000000 512.000000"
 preserveAspectRatio="xMidYMid meet">
<metadata>
Created by potrace 1.11, written by Peter Selinger 2001-2013
</metadata>
<g transform="translate(0.000000,512.000000) scale(0.100000,-0.100000)"
fill="#000000" stroke="none">
<path d="M2330 5110 c-782 -78 -1469 -488 -1902 -1135 -200 -300 -338 -657
-400 -1036 -31 -194 -31 -564 0 -758 119 -730 513 -1349 1117 -1753 300 -200
657 -338 1036 -400 194 -31 564 -31 758 0 283 46 511 119 760 243 666 330
1159 940 1341 1659 58 228 73 360 73 630 0 270 -15 402 -73 630 -154 609 -537
1148 -1065 1502 -299 200 -663 340 -1030 398 -148 23 -476 34 -615 20z m450
-161 c484 -44 956 -243 1335 -562 529 -446 845 -1129 845 -1827 0 -698 -316
-1381 -845 -1827 -497 -419 -1134 -621 -1775 -562 -484 44 -956 243 -1335 562
-529 446 -845 1129 -845 1827 0 698 316 1381 845 1827 497 419 1134 621 1775
562z"/>
<path d="M3060 3665 c-250 -50 -462 -237 -533 -467 -47 -155 -47 -158 -47
-646 0 -515 -1 -519 -64 -647 -59 -119 -196 -240 -317 -280 -298 -99 -610 65
-715 375 -26 76 -26 244 0 320 76 226 251 368 488 396 61 7 180 -9 234 -32 18
-8 38 -14 44 -14 6 0 10 33 10 84 l0 84 -72 18 c-47 12 -109 18 -173 18 -247
-1 -461 -117 -596 -322 -195 -296 -145 -679 119 -923 80 -74 197 -139 302
-166 88 -24 272 -24 360 0 104 27 222 92 301 165 112 104 168 197 212 352 20
71 21 105 27 585 l5 510 26 66 c37 97 71 149 139 217 109 108 230 157 390 157
115 0 170 -14 271 -67 108 -57 218 -184 259 -301 74 -210 23 -428 -138 -584
-169 -166 -397 -209 -614 -118 -16 6 -18 -1 -18 -78 l0 -85 73 -18 c46 -12
108 -18 172 -18 247 1 461 117 596 322 179 273 151 636 -70 874 -175 189 -426
273 -671 223z"/>
</g>
</svg>
